Genre:Comedy | Crime
Language:English  http://www.imdb.com/title/tt1117386/
Source:DVD

Format : MPEG-4
Format profile : Base Media
Codec ID : isom
File size : 823 MiB
Duration : 1h 44mn
Overall bit rate : 1 097 Kbps


Video
Codec ID : avc1
Codec ID/Info : Advanced Video Coding
Duration : 1h 44mn
Bit rate mode : Variable
Bit rate : 931 Kbps
Width : 720 pixels
Height : 384 pixels
Display aspect ratio : 1.875
Frame rate mode : Constant
Frame rate : 29.970 fps
Original frame rate : 29.000 fps
Color space : YUV
Chroma subsampling : 4:2:0
Bit depth : 8 bits
Scan type : Progressive
Bits/(Pixel*Frame) : 0.112
Stream size : 699 MiB (85%)
Language : English

Audio
ID : 1
Format : AAC
Format/Info : Advanced Audio Codec
Format version : Version 4
Format profile : LC
Codec ID : 40
Duration : 1h 44mn
Bit rate mode : Constant
Bit rate : 160 Kbps
Channel(s) : 2 channels
Channel positions : Front: L R
Sampling rate : 48.0 KHz
Stream size : 120 MiB (15%)
Language : English


Plot:
Will, an escaped convict, inadvertently takes refuge in a barn the same night the owners, April and Martin

